STARTFONT 2.3
FONT -FontForge-Fontdiner Swanky-Book-R-Normal--16-160-72-72-P-101-ISO10646-1
SIZE 16 72 72  4
FONTBOUNDINGBOX 23 25 -4 -8
COMMENT "Generated by fontforge, http://fontforge.sourceforge.net"
COMMENT "Copyright (c) 2010 by Font Diner, Inc. All rights reserved."
STARTPROPERTIES 40
FOUNDRY "FontForge"
FAMILY_NAME "Fontdiner Swanky"
WEIGHT_NAME "Book"
SLANT "R"
SETWIDTH_NAME "Normal"
ADD_STYLE_NAME ""
PIXEL_SIZE 16
POINT_SIZE 160
RESOLUTION_X 72
RESOLUTION_Y 72
SPACING "P"
AVERAGE_WIDTH 101
CHARSET_REGISTRY "ISO10646"
CHARSET_ENCODING "1"
FONTNAME_REGISTRY ""
CHARSET_COLLECTIONS "ISO10646-1"
BITS_PER_PIXEL 4
FONT_NAME "FontdinerSwanky-Regular"
FACE_NAME "Fontdiner Swanky Regular"
COPYRIGHT "Copyright (c) 2010 by Font Diner, Inc. All rights reserved."
FONT_VERSION "1.001"
FONT_ASCENT 13
FONT_DESCENT 3
UNDERLINE_POSITION -2
UNDERLINE_THICKNESS 1
X_HEIGHT 8
CAP_HEIGHT 9
RAW_ASCENT 799
RAW_DESCENT 200
NORM_SPACE 5
RELATIVE_WEIGHT 40
RELATIVE_SETWIDTH 50
SUPERSCRIPT_X 0
SUPERSCRIPT_Y 7
SUPERSCRIPT_SIZE 10
SUBSCRIPT_X 0
SUBSCRIPT_Y 2
SUBSCRIPT_SIZE 10
AVG_LOWERCASE_WIDTH 100
AVG_UPPERCASE_WIDTH 125
ENDPROPERTIES
CHARS 231
STARTCHAR space
ENCODING 32
SWIDTH 320 0
DWIDTH 5 0
BBX 1 1 0 0
BITMAP
00
ENDCHAR
STARTCHAR exclam
ENCODING 33
SWIDTH 305 0
DWIDTH 5 0
BBX 5 15 0 -1
BITMAP
037640
07FFB0
08FF80
09FF60
09FF30
0AFF00
0BFC00
0BFA00
0CF700
0CF400
0CF100
032000
AFE100
9FE100
021000
ENDCHAR
STARTCHAR quotedbl
ENCODING 34
SWIDTH 369 0
DWIDTH 6 0
BBX 6 5 0 6
BITMAP
796796
BF9AFA
AF79F8
9F68F7
593494
ENDCHAR
STARTCHAR numbersign
ENCODING 35
SWIDTH 702 0
DWIDTH 11 0
BBX 11 11 0 0
BITMAP
003CA00AC000
005FB00DC000
5DDFEBBFEA90
8FFFFFFFFFD0
239F725FA110
008F504F9000
56CF97AFC850
DFFFFFFFFF80
44CF66BFA730
00CE00AF5000
007600682000
ENDCHAR
STARTCHAR dollar
ENCODING 36
SWIDTH 545 0
DWIDTH 9 0
BBX 9 14 0 -2
BITMAP
001AA00000
001FE00000
016FE40410
2EFCDFBC00
AF7005EF00
CFD5002D00
5FFFE93300
15DFFFF800
6305AFFF60
8E3002EF80
AFFA78FF30
A38DFDA300
200AF50000
000BE60000
ENDCHAR
STARTCHAR percent
ENCODING 37
SWIDTH 657 0
DWIDTH 11 0
BBX 11 14 0 -1
BITMAP
000000051000
17A8104FE100
9F9EA0AF9000
CD0CD1FF3000
8FBF97FB0000
06960DF50000
00004FD00000
0000AF700000
0002FE102000
0007F95EFE40
000DF2DD2EB0
004FB0DD2EB0
00BF404EFD30
005900002000
ENDCHAR
STARTCHAR ampersand
ENCODING 38
SWIDTH 668 0
DWIDTH 11 0
BBX 13 14 0 -2
BITMAP
006CED60000000
06FA2BF5000000
0AF504F9000000
07FD16F6000000
01DFBEA0000000
004FFC00300000
02DEFF50A10000
0DF4AFE3AB0000
5FE01DFDEC7000
7FF503FFD14730
3FFFCCFFFFD300
04CFEA3DF80000
0000004D300000
00000061000000
ENDCHAR
STARTCHAR quotesingle
ENCODING 39
SWIDTH 177 0
DWIDTH 3 0
BBX 3 5 0 6
BITMAP
8A70
BF90
AF70
9F60
4830
ENDCHAR
STARTCHAR parenleft
ENCODING 40
SWIDTH 384 0
DWIDTH 6 0
BBX 7 17 0 -3
BITMAP
00000300
0003C700
005FA000
02FF2000
0AFA0000
0EF60000
1FF40000
3FF30000
3FF30000
2FF40000
0FF60000
0CFB0000
06FF1000
00CF8000
002DE100
00018A00
00000110
ENDCHAR
STARTCHAR parenright
ENCODING 41
SWIDTH 375 0
DWIDTH 6 0
BBX 6 17 0 -3
BITMAP
300000
5D5000
08F700
01EF40
008FC0
004FF1
002FF4
000FF5
000FF5
002FF4
004FF2
008FE0
00DF90
05FE10
0DE300
8A2000
200000
ENDCHAR
STARTCHAR asterisk
ENCODING 42
SWIDTH 640 0
DWIDTH 10 0
BBX 11 11 0 0
BITMAP
000100100000
03CD01E50000
02EF47FF7000
006FBCFC0000
896CFFD33510
BFFFFFFFFF20
CFDDFFDACE10
202EEFF50000
00CF7BFE3000
04FE16FB3000
003601400000
ENDCHAR
STARTCHAR plus
ENCODING 43
SWIDTH 607 0
DWIDTH 10 0
BBX 10 10 0 0
BITMAP
0006EE2000
0006FF2000
0006FF1000
9BBCFF8773
CFFFFFFFF7
ACBCFFA994
0004FE0000
0004FD0000
0004FC0000
0001550000
ENDCHAR
STARTCHAR comma
ENCODING 44
SWIDTH 226 0
DWIDTH 4 0
BBX 4 6 0 -4
BITMAP
0110
7FE2
CFF6
2BF2
0C60
1200
ENDCHAR
STARTCHAR hyphen
ENCODING 45
SWIDTH 549 0
DWIDTH 9 0
BBX 7 3 1 4
BITMAP
EDCBA970
FFFFFFC0
DCBBAA70
ENDCHAR
STARTCHAR period
ENCODING 46
SWIDTH 226 0
DWIDTH 4 0
BBX 4 4 0 -2
BITMAP
0420
9FF4
AFF5
1540
ENDCHAR
STARTCHAR slash
ENCODING 47
SWIDTH 600 0
DWIDTH 10 0
BBX 11 16 -1 -2
BITMAP
00000000A910
00000004FFD0
0000000CFF60
0000006FFC00
000001EFF300
000008FF8000
00002FFD1000
0000BFF50000
0004FFB00000
000DFE200000
007FF7000000
01EFC0000000
09FF30000000
3FF900000000
19E100000000
001000000000
ENDCHAR
STARTCHAR zero
ENCODING 48
SWIDTH 740 0
DWIDTH 12 0
BBX 12 11 0 0
BITMAP
000001100000
003AEFFE9200
06FFE88DFE30
2FFC1001DFD0
8FF400007FF5
AFF100004FF7
9FF100004FF7
6FF500008FF3
1EFC1003EFB0
03EFD9AFFC10
0018CEEB6000
ENDCHAR
STARTCHAR one
ENCODING 49
SWIDTH 503 0
DWIDTH 8 0
BBX 10 13 -1 -1
BITMAP
0000257000
37ADFFD000
137AFFD000
0000FFC000
0000EFC000
0000EFB000
0000DFB000
0000CFA000
0000CFA000
0000BFA000
0000BF9000
005CFFFB30
0577777774
ENDCHAR
STARTCHAR two
ENCODING 50
SWIDTH 638 0
DWIDTH 10 0
BBX 11 14 -1 -1
BITMAP
020000000000
064015751000
04E7EFFFE600
02FFD538FF40
00FE2000CFA0
00D60000CFA0
00A00004FF50
0040018FF810
00008EFB4170
002CFD400770
01DFB1001E70
0AFFA99ACF60
1FFFFFFFFF50
033445667820
ENDCHAR
STARTCHAR three
ENCODING 51
SWIDTH 620 0
DWIDTH 10 0
BBX 11 15 -1 -2
BITMAP
010000000000
070013200000
0967FFFE8000
06FFB79FFA00
03F80007FF20
00C00003FF30
0030102BFE00
0000AFFFF700
001068CFFF20
0180000AFF80
04E20006FF80
08FD403DFF30
0B9EFFFFE500
19017A971000
110000000000
ENDCHAR
STARTCHAR four
ENCODING 52
SWIDTH 606 0
DWIDTH 10 0
BBX 11 15 -1 -2
BITMAP
000000001000
000000056000
0000003E6000
000002DF5000
00001CFF5000
0000AFFF5000
0008FCFF4010
005FB3FF4450
03FC12FF4C40
2EFEEEFFFF40
465555FF6D30
000001FF2730
000002FF3120
0005BFFFE810
001111111100
ENDCHAR
STARTCHAR five
ENCODING 53
SWIDTH 610 0
DWIDTH 10 0
BBX 10 13 0 -1
BITMAP
00002479B1
8BDFFFFFE0
CFECA87AC0
AF900002A0
7FB6763050
4FFFFFFB20
2E734AFFC0
020000BFF3
2200009FF4
5D2001DFF1
7FE98DFF80
98CFFFFA10
4004774000
ENDCHAR
STARTCHAR six
ENCODING 54
SWIDTH 619 0
DWIDTH 10 0
BBX 10 15 0 -2
BITMAP
0000000150
0000210580
004DFF9B90
03FFFEFFB0
0DFE203BD0
5FF7342090
9FFFFFFD60
DFFC42AFF4
EFF2000DFA
FFC0000AFD
CFC0000AFC
8FF2001EF7
1DFD55CFC1
019EFFE910
0000110000
ENDCHAR
STARTCHAR seven
ENCODING 55
SWIDTH 598 0
DWIDTH 10 0
BBX 11 13 0 -1
BITMAP
665443221000
BFFFFFFFFF40
6FC789DFFD00
1F6000BFF700
0C2000EFE100
060003FF9000
000007FF3000
00000BFC0000
00000EF60000
00003FE10000
00007F900000
003AFFD50000
049AABBCA200
ENDCHAR
STARTCHAR eight
ENCODING 56
SWIDTH 642 0
DWIDTH 10 0
BBX 11 14 0 -2
BITMAP
000134200000
008EFFFB2000
0AFE52BFD200
2FF8002FF800
3FF6000FF900
1EFA004FF600
07FFCAFFC000
2DFFDCFFF600
BFF9004FFF20
EFF1000BFF50
DFF3000CFF40
7FFC208FFC00
06DFFFFF9100
000466510000
ENDCHAR
STARTCHAR nine
ENCODING 57
SWIDTH 610 0
DWIDTH 10 0
BBX 10 14 0 -2
BITMAP
0014662000
05EFFFFA10
4FF812CFA0
BFE0003FF3
EFB0001FF8
EFD0003FFA
9FF601CFFA
1DFFEFFFF8
117CECAFF5
1C1000AFE0
0EE759FF60
0CFFFFF900
0A559A5000
0600000000
ENDCHAR
STARTCHAR colon
ENCODING 58
SWIDTH 223 0
DWIDTH 4 0
BBX 4 8 0 -2
BITMAP
1520
CFF2
CFF2
1420
1420
CFE2
DFF3
1530
ENDCHAR
STARTCHAR semicolon
ENCODING 59
SWIDTH 228 0
DWIDTH 4 0
BBX 4 10 0 -4
BITMAP
1530
CFF3
BFF3
0420
0200
AFD1
EFF4
3CE1
1D40
1100
ENDCHAR
STARTCHAR less
ENCODING 60
SWIDTH 563 0
DWIDTH 9 0
BBX 10 11 0 0
BITMAP
0000000040
0000003CF1
000019FFF5
0007EFFFC3
04DFFFC400
8FFFD50000
19FF900000
003CFC2000
00007FE400
000002BF60
00000006A0
ENDCHAR
STARTCHAR equal
ENCODING 61
SWIDTH 531 0
DWIDTH 9 0
BBX 9 7 0 1
BITMAP
6654432100
EFFFFFFF50
FFFFFFFF40
4332221100
BDDDEEFF50
EFFFFFFF50
4567789A30
ENDCHAR
STARTCHAR greater
ENCODING 62
SWIDTH 576 0
DWIDTH 9 0
BBX 10 11 0 0
BITMAP
2200000000
8F81000000
CFFD500000
8EFFFB3000
018EFFF810
00029FFFE2
00003EFD40
0006FF8100
009FC30000
1CE7000000
3B20000000
ENDCHAR
STARTCHAR question
ENCODING 63
SWIDTH 592 0
DWIDTH 9 0
BBX 10 15 0 -1
BITMAP
0600000000
3E89974000
6FC9BFFC20
960002DFD0
5000004FF4
0000004FF6
000000BFF3
00BA9DFF80
00EFECA400
01FF600000
02EE100000
0222000000
7FF7000000
8FFB000000
0572000000
ENDCHAR
STARTCHAR at
ENCODING 64
SWIDTH 792 0
DWIDTH 13 0
BBX 14 12 0 -1
BITMAP
000169BB830000
008FEA88CFA100
0AFB147615FC00
5FC0AD8DD18F70
BF43FA05F62FD0
EF119624F80FF1
FF12CFCDF70FF1
DF37F707F51FD0
8F94FEADF44F80
1DF62559F8CC10
02BFB5208B9100
00026897200000
ENDCHAR
STARTCHAR A
ENCODING 65
SWIDTH 788 0
DWIDTH 13 0
BBX 19 15 -3 -4
BITMAP
00003999871000000000
0000018EFF8000000000
00000001EFE100000000
00000005FFF800000000
0000000CBDFE10000000
0000005F26FF80000000
000000D900EFE1000000
000006FEDDEFF7000000
00000DCAA99FFE100000
00007E100009FF700000
003AFD200003FFE10000
18CDEFE70000BFF92000
0000001210009FFFFB30
000000000007FD952000
00000000002520000000
ENDCHAR
STARTCHAR B
ENCODING 66
SWIDTH 774 0
DWIDTH 12 0
BBX 15 13 -2 -2
BITMAP
3999888775300000
02BFFFFFFFFE8100
0008FF81237EFD10
0005FF700005FF50
0004FF700019FF30
0003FFC88AEFF600
0001FFFFFFFD3000
0000FFC359EFD200
0000EFC0004FFB00
0000CFC0006FFD00
0000BFD36BFFE400
002AFFFFFEB71000
06BA875420000000
ENDCHAR
STARTCHAR C
ENCODING 67
SWIDTH 766 0
DWIDTH 12 0
BBX 13 13 0 -1
BITMAP
00000000000410
0004ADEDA32C00
01AFFFCCFFDB00
0AFFC2001BF800
4FFE100001D600
8FF80000005300
AFF50000000100
9FF60000000000
7FF90000003000
2EFE1000009300
07FFD30007F600
007FFFCCEFB900
00028CDDA50600
ENDCHAR
STARTCHAR D
ENCODING 68
SWIDTH 833 0
DWIDTH 13 0
BBX 16 12 -2 -1
BITMAP
28AAAAAAAA840000
004AFFFFDDFFD400
00005FFC001BFF40
00004FFB0000DFD0
00002FFA00008FF3
00001FF900006FF5
00000FF900007FF4
00000FF80000AFF1
00000EF70001EFA0
00001EF9446DFD10
0006EFFFFFFD8100
0057654332100000
ENDCHAR
STARTCHAR E
ENCODING 69
SWIDTH 781 0
DWIDTH 13 0
BBX 14 13 -2 -1
BITMAP
00000001245677
16BCDEFFFFFEFC
0016DFF83201EC
00008FF500308B
00008FF405602A
00007FF40D5004
00007FFABF5001
00006FFFFF5015
00006FF33F4056
00005FF30740A6
00005FF20011E6
004AFFFFFFFFF6
03655555555442
ENDCHAR
STARTCHAR F
ENCODING 70
SWIDTH 731 0
DWIDTH 12 0
BBX 13 13 -1 -1
BITMAP
00000012345620
59BCDEFFFFFF30
027EFF74218F30
000AFF30112F30
000AFF30710B30
0009FF22E10630
0009FFACF00120
0008FFFFF00000
0008FF16F00000
0007FF10B00000
0007FF10300000
002BFF60000000
29DDDDDC610000
ENDCHAR
STARTCHAR G
ENCODING 71
SWIDTH 828 0
DWIDTH 13 0
BBX 15 13 0 -1
BITMAP
0000000000190000
0005BEFEC6CB0000
01BFFEBBEFFA0000
0BFFB1001AF90000
4FFE100000C80000
8FF9000000260000
AFF7015666676620
9FF80016BFFF9200
6FFB00000AFC0000
1EFF30000BFE0000
07FFE4005FFF0000
007EFFEEFD5D1000
0001699840021000
ENDCHAR
STARTCHAR H
ENCODING 72
SWIDTH 797 0
DWIDTH 13 0
BBX 16 14 -2 -2
BITMAP
0000000233333222
000000006CFFFE81
18EEEEEB40AFF300
001AFF80009FF200
0007FF50009FF200
0006FF50009FF100
0006FF62229FF100
0005FFFFFFFFF000
0005FF96538FF000
0004FF40007FF000
0004FF40008FE100
0004FF316CFFFEA4
017CFFC720000000
1555555552000000
ENDCHAR
STARTCHAR I
ENCODING 73
SWIDTH 445 0
DWIDTH 7 0
BBX 10 13 -1 -2
BITMAP
5CFFFFED71
003DFF7000
000AFF3000
0009FF2000
0009FF2000
0008FF2000
0007FF1000
0007FF1000
0006FF0000
0006FF0000
0005FF0000
027DFFB510
2666666651
ENDCHAR
STARTCHAR J
ENCODING 74
SWIDTH 718 0
DWIDTH 12 0
BBX 15 14 -2 -2
BITMAP
0000000000257940
0001468ADFFF9200
00001357AFF90000
000000001FFA0000
000000000EFC0000
000000000BFE0000
0000000009FF1000
0000000007FF3000
0000000006FF3000
2ADDDD6007FF2000
004FF20009FF0000
000BF4001EFA0000
0003FE76CFD20000
00003BEFD8100000
ENDCHAR
STARTCHAR K
ENCODING 75
SWIDTH 934 0
DWIDTH 15 0
BBX 19 14 -1 -2
BITMAP
477889AA720000000000
039EFFA305BCCCCB7100
000BFF40002DFC610000
000AFF4005EE70000000
0009FF33BFB200000000
0008FFBFFD1000000000
0007FFE6DFA000000000
0007FF203FF700000000
0006FF1007FF50000000
0005FF1000BFE3000000
0007FF50002EFD100000
06DFFFFE9305FFB10000
01111111126DFFFE9400
00000000045555555530
ENDCHAR
STARTCHAR L
ENCODING 76
SWIDTH 712 0
DWIDTH 11 0
BBX 14 13 -2 0
BITMAP
15888888983000
0039EFFE820000
00008FF7000000
00007FF7000000
00007FF7000000
00006FF7000000
00005FF6000013
00004FF6000064
00003FF60000C4
00003FF60003F4
00002FF50009F4
0003BFFEEDDEF4
029CBBA9987761
ENDCHAR
STARTCHAR M
ENCODING 77
SWIDTH 1033 0
DWIDTH 17 0
BBX 19 13 -1 -1
BITMAP
45555520000039887620
16DFFFD00000BFFE8200
000BFFF50004FFF80000
0009FFFC000CFFF70000
0008FFFF506FDFF60000
0007F9FFC1EC9FF60000
0006F5BFFBF59FF50000
0005F53FFFD09FF40000
0004F609FF509FF30000
0002F601ED009FF30000
0001F7007500AFF30000
027CFEA5104BEFFFB610
36666666620000001110
ENDCHAR
STARTCHAR N
ENCODING 78
SWIDTH 840 0
DWIDTH 13 0
BBX 17 13 -2 -1
BITMAP
045554413888999950
017EFFFB028EFFA300
0000AFFF9000DB0000
00008FFFF600CB0000
00008F9FFF30CB0000
00008F1BFFD1CA0000
00008F11DFFCCA0000
00008F102EFFFA0000
00008F2003FFFA0000
00008F20005FF90000
0017DFC71007F90000
16CDDEEED940990000
000000000000040000
ENDCHAR
STARTCHAR O
ENCODING 79
SWIDTH 808 0
DWIDTH 13 0
BBX 13 11 0 -1
BITMAP
00059CDC940000
02CFFEBCFFB100
1DFF80007FFC00
6FFA00000BFF50
9FF5000007FF80
AFF5000006FF90
7FF8000009FF60
1EFE20003FFD10
04EFE769EFE300
0029EFFFD81000
00000231000000
ENDCHAR
STARTCHAR P
ENCODING 80
SWIDTH 746 0
DWIDTH 12 0
BBX 15 12 -2 -1
BITMAP
1333222110000000
029FFFFFFEC83000
0001DFE667AFF700
0000BFD00003FF10
0000BFD00019FC00
0000AFFABDFE8100
0000AFFB86300000
0000AFF300000000
0000AFF300000000
0000AFF400000000
004CFFFE93000000
0477776666300000
ENDCHAR
STARTCHAR Q
ENCODING 81
SWIDTH 789 0
DWIDTH 13 0
BBX 15 16 0 -5
BITMAP
0000245410000000
004CFFFFFA200000
06FFD636EFE20000
1FFE10004FFB0000
6FF700000CFF1000
7FF500000AFF3000
6FF600000BFF2000
2FFB00002EFC0000
08FF8002CFF30000
008FFEDFFD400000
000279DFD0000000
0000006FF5000000
0000002FFEA86410
0000005FFFFB7200
000007FD94100000
0000462000000000
ENDCHAR
STARTCHAR R
ENCODING 82
SWIDTH 826 0
DWIDTH 13 0
BBX 19 15 -1 -4
BITMAP
45443322100000000000
17DFFFFFFEA500000000
000AFF5468DFB0000000
0008FF00001FF3000000
0008FF10028FC0000000
0008FFCCEFD700000000
0008FFA7CFA000000000
0007FF504FF600000000
0007FF600BFE20000000
0008FF7003FFB0000000
04CFFFFB509FF7000000
36665555532EFFCCB610
00000000000CFFD71000
00000000009FA4000000
00000000057100000000
ENDCHAR
STARTCHAR S
ENCODING 83
SWIDTH 661 0
DWIDTH 11 0
BBX 11 13 0 -2
BITMAP
001566400630
09FFDEFE8F10
8FE3003AFE00
CFD200007D00
BFFFB7300500
2DFFFFFD6000
017CFFFFFA00
040015BFFF40
0C20000AFF60
0FD5002CFE10
1D9FFEFFC200
350267520000
200000000000
ENDCHAR
STARTCHAR T
ENCODING 84
SWIDTH 754 0
DWIDTH 12 0
BBX 12 12 0 -1
BITMAP
4BBBAAAAA994
4FCADFFCBDF5
3F408FF505F3
1E007FF500E1
08007FF40090
02006FF40030
00006FF30000
00006FF30000
00005FF20000
00008FF40000
006DFFFFB400
023344444420
ENDCHAR
STARTCHAR U
ENCODING 85
SWIDTH 725 0
DWIDTH 12 0
BBX 15 12 -2 -1
BITMAP
1321000017777730
029FFED7118FE500
000AFF40000FB000
000BFF30000FA000
000BFF30000E9000
000CFF30000E9000
000CFF30000D8000
000BFF30000D7000
0009FF80003F4000
0002EFF735DD0000
00004EFFFFC20000
0000014653000000
ENDCHAR
STARTCHAR V
ENCODING 86
SWIDTH 786 0
DWIDTH 13 0
BBX 17 14 -2 -2
BITMAP
000000143000000000
00158CE60275200000
4AEFFF40003CFFC810
0008FF800003F82000
0001EFE0000AC00000
00008FF6003F400000
00001FFC00BB000000
000009FF44F3000000
000002FFBCB0000000
0000009FFF30000000
0000002FFA00000000
0000000AF300000000
000000029000000000
000000001000000000
ENDCHAR
STARTCHAR W
ENCODING 87
SWIDTH 1026 0
DWIDTH 16 0
BBX 21 13 -2 -2
BITMAP
0001234550002420000000
4AEFFFE7104004BFDCA720
001CFF4000D50004FA4000
0006FF8005FD0007E10000
0001EFE00CFF600C900000
00008FF54FFFE13F400000
00002FFABFCFF89D000000
00000BFFFE1EFEE7000000
000004FFF708FFF1000000
000000DFE101EFA0000000
0000006F80008F40000000
0000001E10001D00000000
0000000300000300000000
ENDCHAR
STARTCHAR X
ENCODING 88
SWIDTH 860 0
DWIDTH 14 0
BBX 17 11 -2 -1
BITMAP
0156789B9401123410
0026CFFA019FFFA300
00001CFF405EC20000
000002EFE8FA100000
0000004FFF90000000
0000001DFFC1000000
000002DFCFFA000000
00004ED31DFF700000
0028FE2003EFF40000
18CDDEC301BFFFA300
000000003ABAA98850
ENDCHAR
STARTCHAR Y
ENCODING 89
SWIDTH 848 0
DWIDTH 14 0
BBX 17 13 -2 -2
BITMAP
122345562000000000
38EFFFD40055443310
0004DFE3002AFFC500
00002EFD2006E30000
000004FFC16E300000
0000005FFCF4000000
00000007FF60000000
00000002FF30000000
00000002FF40000000
00000003FF60000000
00000004FF91000000
000004AFFFFEA50000
000002111111110000
ENDCHAR
STARTCHAR Z
ENCODING 90
SWIDTH 685 0
DWIDTH 11 0
BBX 12 10 0 0
BITMAP
58899AAABBB2
7FEDDCDFFF70
3F4000BFFB00
0E1009FFD100
08007FFE3010
0205FFF50080
003EFF9005A0
02EFFC000D90
1CFFFCBABF90
6AAAABBBBB60
ENDCHAR
STARTCHAR bracketleft
ENCODING 91
SWIDTH 380 0
DWIDTH 6 0
BBX 6 16 1 -2
BITMAP
221100
FFFFD5
FFD500
FF8000
EF8000
EF8000
DF8000
DF7000
DF7000
CF7000
CF7000
BF6000
BF6000
AF6000
AFC300
9EEE92
ENDCHAR
STARTCHAR backslash
ENCODING 92
SWIDTH 680 0
DWIDTH 11 0
BBX 11 16 0 -2
BITMAP
07D100000000
9FF800000000
3FFE20000000
08FFA0000000
01DFF4000000
005FFC000000
000AFF600000
0002EFE10000
00007FF80000
00000CFF2000
000003FFA000
0000009FF400
0000001EFD00
00000005FF60
00000000BB30
000000001000
ENDCHAR
STARTCHAR bracketright
ENCODING 93
SWIDTH 371 0
DWIDTH 6 0
BBX 7 16 -1 -2
BITMAP
00112210
3BFFFF40
003BFF40
0004FF30
0004FF30
0004FF20
0004FF20
0003FF20
0003FF10
0003FF10
0003FF00
0002FF00
0002FF00
0002FE00
0029FE00
17DEEC00
ENDCHAR
STARTCHAR asciicircum
ENCODING 94
SWIDTH 671 0
DWIDTH 11 0
BBX 11 11 0 4
BITMAP
000001000000
000049000000
0000DF400000
0007FFD00000
002EFFF80000
00AFF9EF3000
04FFE15FC000
0CFF6008F600
6FFD0000BE20
DFF600001B60
036000000000
ENDCHAR
STARTCHAR underscore
ENCODING 95
SWIDTH 840 0
DWIDTH 13 0
BBX 14 4 0 -2
BITMAP
11122222333341
FFFFFFFFFFFFF6
FFFFFFFFFFFFF6
8888999AAAABB5
ENDCHAR
STARTCHAR grave
ENCODING 96
SWIDTH 707 0
DWIDTH 11 0
BBX 4 5 4 9
BITMAP
0020
2BF1
0DF6
05FB
0083
ENDCHAR
STARTCHAR a
ENCODING 97
SWIDTH 572 0
DWIDTH 9 0
BBX 10 10 0 -1
BITMAP
006BDB7100
0AF96BFC00
3FF301FF30
1DD100EF50
049BBAFF50
5FF758FF40
AFD004FF20
4FFCADFF00
02788CFFA3
0000035433
ENDCHAR
STARTCHAR b
ENCODING 98
SWIDTH 723 0
DWIDTH 12 0
BBX 14 15 -2 -3
BITMAP
3579BD90000000
27CFFF90000000
0005FF90000000
0004FF80000000
0003FF70000000
0002FF70000000
0002FF60000000
0001FFBBCCB610
0001FFD98CFFB0
0000FF4000AFF5
0000EF30006FF5
0000EF3000AFE1
0002EF657CFD20
004EFFFFEB6000
01654310000000
ENDCHAR
STARTCHAR c
ENCODING 99
SWIDTH 589 0
DWIDTH 9 0
BBX 10 9 0 -1
BITMAP
0028CDB500
03EFB8DF90
1EFA009FF1
5FF4005EB0
7FF3000000
6FF5000043
2EFD2004D1
06FFFCDF70
004BEEC500
ENDCHAR
STARTCHAR d
ENCODING 100
SWIDTH 713 0
DWIDTH 11 0
BBX 13 16 0 -3
BITMAP
00000476543100
00000029FFF400
00000000AFF200
00000000BFF000
00000000CFD000
00000000CFB000
00003310DF9000
007EFFFBEF7000
09FF956AFF6000
3FF70001FF4000
5FF20001FF2000
3FF30002FF0000
0BFD3003FD0000
01AFFDCFFB0000
00015778FEB730
00000003864200
ENDCHAR
STARTCHAR e
ENCODING 101
SWIDTH 593 0
DWIDTH 10 0
BBX 10 9 0 -1
BITMAP
0002552000
01AFFFFA00
0AFD55DF90
4FF3004FF1
7FFAAAAFF4
7FFBAAA993
2FF5000030
07FFA89C30
004CEEA300
ENDCHAR
STARTCHAR f
ENCODING 102
SWIDTH 507 0
DWIDTH 8 0
BBX 11 23 -1 -7
BITMAP
000001540000
00005FFFD200
0001FF33FC00
0007FB04FF10
000AF901CA00
000BF9000000
000BFA000000
000AFC000000
0CFFFFFFD000
046AFF765000
0005FF300000
0003FF400000
0001FF600000
0000EF800000
0000CFA00000
0000AFB00000
00008FD00000
00006FE00000
5B305FE00000
BF907FB00000
8F71CF500000
0BFFF8000000
003530000000
ENDCHAR
STARTCHAR g
ENCODING 103
SWIDTH 606 0
DWIDTH 10 0
BBX 11 18 0 -8
BITMAP
0000001BFB10
000011BEFF60
006EFFF7CE20
09FB23EF6000
4FF1006FE100
8FC0002FF400
8FC0002FF300
3FF2007FD000
08FD46FE3000
06EEDDA20000
0FFD76410000
08FFFFFE8000
3DFA548FF900
CFB00007FF10
FF800004FF30
CFC00008FE10
3EFB659FF600
017CEEC82000
ENDCHAR
STARTCHAR h
ENCODING 104
SWIDTH 678 0
DWIDTH 11 0
BBX 14 16 -2 -2
BITMAP
00246960000000
5BFFFF80000000
0018FF80000000
0005FF70000000
0005FF60000000
0004FF60000000
0003FF50000000
0003FF86640000
0002FFFDEFE500
0002FF4008FF30
0001FF2001FF50
0001FF2000FF40
0001FF2000FF20
005DFFE502FE10
012210006EFFE5
00000000000011
ENDCHAR
STARTCHAR i
ENCODING 105
SWIDTH 393 0
DWIDTH 6 0
BBX 8 13 -1 0
BITMAP
0003A600
000EFF30
000DFF20
00039500
14444410
03AFFF30
0007FF20
0007FF00
0006FE00
0005FD00
0005FC00
0019FD20
04CEFFE6
ENDCHAR
STARTCHAR j
ENCODING 106
SWIDTH 385 0
DWIDTH 6 0
BBX 8 18 -2 -6
BITMAP
0004A600
000EFF30
000DFF20
00028400
01457980
005BFFD0
00009FE0
00007FF1
00005FF2
00003FF4
00001FF5
00000FF7
00000DF8
04500BF8
1FF40BF6
0EF20DF3
05EDDF90
00166300
ENDCHAR
STARTCHAR k
ENCODING 107
SWIDTH 749 0
DWIDTH 12 0
BBX 16 15 -2 -2
BITMAP
379ABC9000000000
0039FFA000000000
0005FFA244444431
0004FF907EFFFA30
0003FF9008FA2000
0002FF80AF700000
0001FF9BF6000000
0000FFFFFD000000
0000EFB2DF700000
0000DF704FE20000
0000CF6009FA0000
0001DF9001EF4000
017EFFFD716FE951
0121100003DEB852
0000000026300000
ENDCHAR
STARTCHAR l
ENCODING 108
SWIDTH 369 0
DWIDTH 6 0
BBX 9 16 -2 -2
BITMAP
28AABB7000
004AFFA000
0003FF9000
0003FF9000
0002FF8000
0001FF7000
0001FF7000
0000FF6000
0000EF6000
0000EF5000
0000DF5000
0000CF4000
0000CF4000
0001DF7000
005EFFFC20
0132211000
ENDCHAR
STARTCHAR m
ENCODING 109
SWIDTH 990 0
DWIDTH 16 0
BBX 19 8 -2 1
BITMAP
00136863661014520000
18EFFFEFFFE9EFFF5000
0004FFD55DFFB6CFD000
0000EF6006FE103FF000
0000DF4004FB002FE000
0000BF2004FA003FD000
0039EFC404F805CFF810
00222226AEFE83233440
ENDCHAR
STARTCHAR n
ENCODING 110
SWIDTH 643 0
DWIDTH 10 0
BBX 14 8 -2 1
BITMAP
00136862652000
18EFFFEFFFE400
0004FFD55DFB00
0000EF6006FD00
0000DF4004FD00
0000BF2004FB00
0039EFC304F900
00222226AEFE81
ENDCHAR
STARTCHAR o
ENCODING 111
SWIDTH 705 0
DWIDTH 11 0
BBX 12 9 0 -1
BITMAP
001589861000
07EFEABFF900
5FF80003FF90
BFD000009FF0
CFC000008FF1
9FE20000CFD0
1CFD534BFE30
017CFFFD8200
000001000000
ENDCHAR
STARTCHAR p
ENCODING 112
SWIDTH 723 0
DWIDTH 12 0
BBX 14 13 -2 -4
BITMAP
3679BC60000000
049EFFB9A96100
0003FFEA9DFE50
0002FF70008FF2
0001FF70000FF6
0000FF70001FF5
0000EF8001AFE1
0000DFFDCEFE40
0000CFA7996100
0000CF80000000
0000BF80000000
0004DFD5000000
04ACCBAA820000
ENDCHAR
STARTCHAR q
ENCODING 113
SWIDTH 682 0
DWIDTH 11 0
BBX 13 14 0 -4
BITMAP
00000000000110
0000000EFFFA30
028DFFCFFD2000
2DFC647FFB0000
AFC1000EFA0000
CF90000EF90000
BFC0000EF80000
3FF9326FF70000
04DFFFFFF60000
0002431FF50000
0000000FF40000
0000000FF30000
000017DFFD7100
00003455677720
ENDCHAR
STARTCHAR r
ENCODING 114
SWIDTH 595 0
DWIDTH 10 0
BBX 11 11 -1 -1
BITMAP
000037103300
49CFFF7DFFA0
037DFFEBFFF0
0008FF505C70
0007FF100000
0005FF000000
0004FF000000
0002FE000000
0018FFD82000
05DECB986200
020000000000
ENDCHAR
STARTCHAR s
ENCODING 115
SWIDTH 533 0
DWIDTH 9 0
BBX 9 11 0 -1
BITMAP
0025410300
09FFFE8A00
7FA017FE00
AFD3004D00
5FFFC71500
06EFFFE600
4416CFFF40
6E3003EF70
7FFA67FF30
858CEDA400
2000000000
ENDCHAR
STARTCHAR t
ENCODING 116
SWIDTH 422 0
DWIDTH 7 0
BBX 9 16 -1 -1
BITMAP
0000430000
0000D70000
0003F60000
001BF40000
18DFF74200
2DFFFFFF20
008FE34500
009FD00000
00AFC00000
00BFA00000
00CF900000
00EF800300
00EF701900
00CFD7C800
005FFFD100
0003651000
ENDCHAR
STARTCHAR u
ENCODING 117
SWIDTH 614 0
DWIDTH 10 0
BBX 13 9 -2 -1
BITMAP
18DDD828999600
004FF7018FF700
000FF5000EF500
000FF4000FF200
000FF4001FF000
000DF5002FD000
0009FD55DFA000
0001BFFFBFEA40
00000131297410
ENDCHAR
STARTCHAR v
ENCODING 118
SWIDTH 639 0
DWIDTH 10 0
BBX 14 11 -2 -2
BITMAP
00024793000000
4AFFFC25654321
002EFB007EFFA4
0007FF400BD100
0000DFB04F5000
00005FF3BD0000
00000BFDF50000
000003FFD00000
0000009F500000
0000001C000000
00000001000000
ENDCHAR
STARTCHAR w
ENCODING 119
SWIDTH 805 0
DWIDTH 13 0
BBX 17 10 -2 -1
BITMAP
49AABC931218998750
029FFA0078009F9300
000BFF10DE10BD0000
0004FF85FF73F60000
0000CFEBFFDAE10000
00005FFF5FFF700000
00000CFC0AFE100000
000005F502F9000000
000000A000A2000000
000000000010000000
ENDCHAR
STARTCHAR x
ENCODING 120
SWIDTH 717 0
DWIDTH 11 0
BBX 15 10 -2 -1
BITMAP
013568A940000000
158CFF928ABBB820
0000BFF50CFA3000
00001DFFBF600000
000002EFF4000000
000001CFFB000000
00003DE7FF800000
016BFFA15FF50000
023455663DFFD940
0000000387542000
ENDCHAR
STARTCHAR y
ENCODING 121
SWIDTH 655 0
DWIDTH 10 0
BBX 11 17 -1 -8
BITMAP
540000000000
1CD832ABA860
01DFF407FFE0
00EFE000CFE0
04FFA000CFD0
06FF7000CFD0
04FFB100CFC0
00BFFEDEFFB0
00059A96EFB0
00000000EFA0
00000000EF90
00320000FF80
03FE1003FF60
05FD0008FF10
01DE637FF700
002AFFFD6000
000012200000
ENDCHAR
STARTCHAR z
ENCODING 122
SWIDTH 549 0
DWIDTH 9 0
BBX 10 10 0 -1
BITMAP
2333444552
AFFFFFFFC0
7F422DFE20
4D00AFF500
1807FF9010
024FFC0350
02EFE20A60
1CFFB55F70
6CDEFFFF80
0000012320
ENDCHAR
STARTCHAR braceleft
ENCODING 123
SWIDTH 708 0
DWIDTH 11 0
BBX 9 16 1 -2
BITMAP
0002211000
001FFFFD50
000FFD5000
000FF80000
000FF80000
000EF80000
000EF70000
003EF70000
4DFFF70000
004DF70000
000CF60000
000BF60000
000BF60000
000AF60000
000AFB3000
0009EEE920
ENDCHAR
STARTCHAR bar
ENCODING 124
SWIDTH 304 0
DWIDTH 5 0
BBX 3 16 1 -2
BITMAP
4650
DFB0
DFB0
DFB0
CFB0
CFA0
CFA0
CFA0
CFA0
CF90
BF90
BF90
BF90
BF90
BF80
2320
ENDCHAR
STARTCHAR braceright
ENCODING 125
SWIDTH 517 0
DWIDTH 8 0
BBX 9 16 0 -2
BITMAP
0011220000
5CFFFF1000
004CFF1000
0007FF0000
0007FF0000
0007FF0000
0007FE0000
0006FE3000
0006FFFD40
0006FE4000
0005FC0000
0005FC0000
0005FC0000
0005FB0000
003BFB0000
29EEE90000
ENDCHAR
STARTCHAR asciitilde
ENCODING 126
SWIDTH 466 0
DWIDTH 7 0
BBX 8 4 0 3
BITMAP
26630024
FFFFECF7
FCBFFFF7
50015640
ENDCHAR
STARTCHAR uni00A0
ENCODING 160
SWIDTH 320 0
DWIDTH 5 0
BBX 1 1 0 0
BITMAP
00
ENDCHAR
STARTCHAR exclamdown
ENCODING 161
SWIDTH 305 0
DWIDTH 5 0
BBX 5 14 0 -5
BITMAP
008A40
02FFC0
007B40
009700
02FD00
05FD00
08FC00
0BFC00
0DFB00
1FFA00
4FFA00
7FF900
9FF800
9CD700
ENDCHAR
STARTCHAR cent
ENCODING 162
SWIDTH 417 0
DWIDTH 7 0
BBX 8 14 -1 -2
BITMAP
00036400
0006FA00
0005F900
005DFF90
05F906F7
0DF103F9
1FD00010
1FE00001
0DF30017
05FE87D4
005CFD50
0005F900
0006FA00
0004A700
ENDCHAR
STARTCHAR sterling
ENCODING 163
SWIDTH 658 0
DWIDTH 11 0
BBX 11 13 0 -1
BITMAP
000000000020
000058720640
003DFFFF9E20
00DFB22BFF10
03FF4000BE00
DEFFCBA62B00
FFFFEDD70500
115FC3320030
EFFFFFF90180
67AFD9A60780
00BF84555E70
05FFFFFFFF70
046678899A40
ENDCHAR
STARTCHAR currency
ENCODING 164
SWIDTH 358 0
DWIDTH 6 0
BBX 6 6 0 3
BITMAP
150050
BFDDF7
3FBCF1
1F67F0
6FFFE3
9934C4
ENDCHAR
STARTCHAR yen
ENCODING 165
SWIDTH 796 0
DWIDTH 13 0
BBX 15 11 -2 0
BITMAP
0013466100000000
39EFFB1018987750
0006FF4001AFA400
00006FE304E40000
000007FE7E400000
0000008FF5000000
00006FEFFCC10000
0000378FF8810000
00004ABFFDD10000
0000004FF6100000
00016BCCCCB73000
ENDCHAR
STARTCHAR brokenbar
ENCODING 166
SWIDTH 304 0
DWIDTH 5 0
BBX 3 16 1 -2
BITMAP
4650
DFB0
DFB0
DFB0
DFB0
CFA0
4420
0000
0000
AC70
CF90
BF90
BF90
BF90
BF80
2320
ENDCHAR
STARTCHAR section
ENCODING 167
SWIDTH 646 0
DWIDTH 10 0
BBX 10 20 0 -5
BITMAP
0000000001
007DFD7042
09FA69ECA1
3FD0002DF0
5FF30002D0
2FFF930040
07FFFFC400
02EFFFFF90
0DF56CFFF6
4FD0005FFA
5FF8000BF9
1EFFE89FE3
03EFFFFF40
002AFFFFD1
070017EFF8
0F40001DFA
1FF7000CF8
2DCFECEFB1
4403787400
1000000000
ENDCHAR
STARTCHAR dieresis
ENCODING 168
SWIDTH 708 0
DWIDTH 11 0
BBX 5 3 3 13
BITMAP
010010
9F2BE0
6B18A0
ENDCHAR
STARTCHAR copyright
ENCODING 169
SWIDTH 700 0
DWIDTH 11 0
BBX 12 11 0 0
BITMAP
0027ACB82000
06EFB88DF700
4FD34971AF60
BE26D3AA1DD0
EB0D704608F2
FA0F700008F2
CD0BC1070AE1
7F62DED43F90
0BF71127EC10
008EFFFE8100
000034300000
ENDCHAR
STARTCHAR ordfeminine
ENCODING 170
SWIDTH 399 0
DWIDTH 6 0
BBX 8 7 -1 6
BITMAP
00699400
0AF7CF30
0BE14F80
06CDDF80
1FE39F60
1CFCEF60
0034ACB5
ENDCHAR
STARTCHAR guillemotleft
ENCODING 171
SWIDTH 424 0
DWIDTH 7 0
BBX 7 9 0 -1
BITMAP
00540450
02E61E70
0BE1BF10
8F97F900
BF6BF700
3EC2ED00
06F45F40
00A70980
00110110
ENDCHAR
STARTCHAR logicalnot
ENCODING 172
SWIDTH 541 0
DWIDTH 9 0
BBX 10 8 0 1
BITMAP
5000000030
9100000560
AEDCBBAD50
AFFFFFFF40
A86665AF30
7000005F20
1000003F20
000002BDC2
ENDCHAR
STARTCHAR sfthyphen
ENCODING 173
SWIDTH 530 0
DWIDTH 8 0
BBX 9 3 0 4
BITMAP
DDDCBAA940
EFFFFFFF60
DCCBBAA930
ENDCHAR
STARTCHAR registered
ENCODING 174
SWIDTH 700 0
DWIDTH 11 0
BBX 12 11 0 0
BITMAP
000589961000
04EFDAAEE500
3FE40101BF50
AF37CEAE7ED0
EB009F6A49F2
FA007D0008F3
DD006C000AF1
8F52BE922EA0
1CE60005DD20
019FEDFFA100
000156510000
ENDCHAR
STARTCHAR macron
ENCODING 175
SWIDTH 705 0
DWIDTH 11 0
BBX 5 3 4 11
BITMAP
AAAA50
EFFF70
666630
ENDCHAR
STARTCHAR degree
ENCODING 176
SWIDTH 364 0
DWIDTH 6 0
BBX 5 5 0 7
BITMAP
005400
0BFF90
2F47F0
1ECDC0
03BA20
ENDCHAR
STARTCHAR plusminus
ENCODING 177
SWIDTH 607 0
DWIDTH 10 0
BBX 10 11 0 0
BITMAP
0001110000
0006FF2000
0006FF1000
9FFEFFCBA4
AFFFFFFFF5
688AFE6651
0004FD0000
0003CB0000
5BA9987661
7FFFFFFFF3
7DDCCBBAA2
ENDCHAR
STARTCHAR twosuperior
ENCODING 178
SWIDTH 440 0
DWIDTH 7 0
BBX 7 10 0 5
BITMAP
10000000
59AFE800
3FD6BF80
1E203FB0
0901BF70
036EE770
1BF915B0
AFE9AE90
DEEFFF80
00001110
ENDCHAR
STARTCHAR threesuperior
ENCODING 179
SWIDTH 442 0
DWIDTH 7 0
BBX 7 10 0 5
BITMAP
10000000
72486100
5FFEFE30
2F506FA0
07239F80
018FFF50
0723BFC0
3E408FC0
7DFEFE40
71476100
ENDCHAR
STARTCHAR acute
ENCODING 180
SWIDTH 694 0
DWIDTH 11 0
BBX 4 5 4 11
BITMAP
0340
0AF7
1EE2
3E80
0110
ENDCHAR
STARTCHAR mu
ENCODING 181
SWIDTH 1000 0
DWIDTH 16 0
BBX 13 13 0 -5
BITMAP
4CDDD169999100
01BFE004CFE000
008FC0008FB000
008FB0009F9000
007FA0009F7000
007FB000BF4000
007FF849FF2000
007FFFFDDFC610
006FA220785200
006FA000000000
006FA000000000
006FA000000000
00022000000000
ENDCHAR
STARTCHAR paragraph
ENCODING 182
SWIDTH 782 0
DWIDTH 13 0
BBX 14 12 -1 -1
BITMAP
00002456677885
029EFFFFFFFA30
1DFA53FB3F9000
4FE002FA2F8000
0BFB54FA3F8000
005BEFFFFF8000
000005FB8F8000
000003F84F7000
000003F85F7000
000003FBCFB100
00005BFFFFFE81
00377765543321
ENDCHAR
STARTCHAR periodcentered
ENCODING 183
SWIDTH 226 0
DWIDTH 4 0
BBX 4 4 0 4
BITMAP
1530
AFF4
AFF4
0430
ENDCHAR
STARTCHAR cedilla
ENCODING 184
SWIDTH 780 0
DWIDTH 12 0
BBX 5 5 4 -3
BITMAP
08A000
3FD500
14AE00
3A9F10
3CE600
ENDCHAR
STARTCHAR onesuperior
ENCODING 185
SWIDTH 390 0
DWIDTH 6 0
BBX 6 9 0 5
BITMAP
015990
5CFFB0
007FA0
006FA0
006FA0
005F90
005F90
03CFD3
056665
ENDCHAR
STARTCHAR ordmasculine
ENCODING 186
SWIDTH 449 0
DWIDTH 7 0
BBX 9 7 -1 6
BITMAP
0002320000
04DFEFD400
2FE302EF20
4FB000BF50
1EE202EE20
04DFDFD300
0002420000
ENDCHAR
STARTCHAR guillemotright
ENCODING 187
SWIDTH 415 0
DWIDTH 7 0
BBX 7 9 0 -1
BITMAP
72062000
AB0AC000
4F83F900
0CF4CF40
0AF79F80
1FC1ED10
8E37F300
B60A7000
20020000
ENDCHAR
STARTCHAR onequarter
ENCODING 188
SWIDTH 918 0
DWIDTH 15 0
BBX 15 16 0 -2
BITMAP
01599000000C8000
5CFFB000006FE100
007FA00001EF6000
006FA00009FC0000
006FA0003FF30000
005F9000BF800000
005F9005FD106000
03CFD31DF506C000
0566658FA04FC000
000002EE22EFC010
00000AF61DEFB710
00004FC1BF7FCE10
0000CF39EEEFFF00
0007F800002FA900
001ED10004AFD600
003D500046665520
ENDCHAR
STARTCHAR onehalf
ENCODING 189
SWIDTH 1007 0
DWIDTH 16 0
BBX 16 17 0 -3
BITMAP
01599000000C8000
5CFFB000006FE100
007FA00001EF6000
006FA00009FC0000
006FA0003FF30000
005F9000BF800000
005F9005FD100000
03CFD31DF5000000
0566658FA388DD70
000002EE22FE9CF9
00000AF600F401FD
00004FC000A009FA
0000CF300044CFA7
0007F800009FC33C
001ED10008FE88CB
003D50000CFFFFFA
0000000000112232
ENDCHAR
STARTCHAR threequarters
ENCODING 190
SWIDTH 936 0
DWIDTH 15 0
BBX 15 17 0 -2
BITMAP
1000000000000000
724861000008B100
5FFEFE30002FF500
2F506FA000AFB000
07239F8004FE2000
018FFF500DF70000
0723BFC07FC00000
3E408FC1EF304200
7DFEFE49F903E200
7147613FE11DF100
000000CF50CFF110
000006FB0AFEF350
00001EE27F8EFB50
00008F75EEEFFF40
0003FC00000CE640
000BF300028EF710
001C900026665530
ENDCHAR
STARTCHAR questiondown
ENCODING 191
SWIDTH 568 0
DWIDTH 9 0
BBX 11 15 -1 -5
BITMAP
000000022000
0000006FF900
0000006FFC00
000000046200
0000009B4000
000001FF5000
00058BFF3000
02DFFDDF1000
0CFE40020000
2FF800000000
1FF700000210
0CFD20001B00
02DFE857DB00
0016BDDCE700
000000005400
ENDCHAR
STARTCHAR Agrave
ENCODING 192
SWIDTH 788 0
DWIDTH 13 0
BBX 19 21 -3 -4
BITMAP
00000000110000000000
00000008E60000000000
00000008FC0000000000
00000001EF2000000000
00000000560000000000
00000000000000000000
00003999871000000000
0000018EFF8000000000
00000001EFE100000000
00000005FFF800000000
0000000CBDFE10000000
0000005F26FF80000000
000000D900EFE1000000
000006FEDDEFF7000000
00000DCAA99FFE100000
00007E100009FF700000
003AFD200003FFE10000
18CDEFE70000BFF92000
0000001210009FFFFB30
000000000007FD952000
00000000002520000000
ENDCHAR
STARTCHAR Aacute
ENCODING 193
SWIDTH 788 0
DWIDTH 13 0
BBX 19 20 -3 -4
BITMAP
00000000061000000000
000000003FE100000000
000000008F8000000000
00000000AE1000000000
00000000010000000000
00003999871000000000
0000018EFF8000000000
00000001EFE100000000
00000005FFF800000000
0000000CBDFE10000000
0000005F26FF80000000
000000D900EFE1000000
000006FEDDEFF7000000
00000DCAA99FFE100000
00007E100009FF700000
003AFD200003FFE10000
18CDEFE70000BFF92000
0000001210009FFFFB30
000000000007FD952000
00000000002520000000
ENDCHAR
STARTCHAR Acircumflex
ENCODING 194
SWIDTH 788 0
DWIDTH 13 0
BBX 19 20 -3 -4
BITMAP
000000002A0000000000
00000001DF9000000000
0000000AFDF600000000
0000003D407D00000000
00000000000000000000
00003999871000000000
0000018EFF8000000000
00000001EFE100000000
00000005FFF800000000
0000000CBDFE10000000
0000005F26FF80000000
000000D900EFE1000000
000006FEDDEFF7000000
00000DCAA99FFE100000
00007E100009FF700000
003AFD200003FFE10000
18CDEFE70000BFF92000
0000001210009FFFFB30
000000000007FD952000
00000000002520000000
ENDCHAR
STARTCHAR Atilde
ENCODING 195
SWIDTH 788 0
DWIDTH 13 0
BBX 19 18 -3 -4
BITMAP
0000000BEA6B00000000
0000000FEFFD00000000
00000004047300000000
00003999871000000000
0000018EFF8000000000
00000001EFE100000000
00000005FFF800000000
0000000CBDFE10000000
0000005F26FF80000000
000000D900EFE1000000
000006FEDDEFF7000000
00000DCAA99FFE100000
00007E100009FF700000
003AFD200003FFE10000
18CDEFE70000BFF92000
0000001210009FFFFB30
000000000007FD952000
00000000002520000000
ENDCHAR
STARTCHAR Adieresis
ENCODING 196
SWIDTH 788 0
DWIDTH 13 0
BBX 19 19 -3 -4
BITMAP
00000001001000000000
0000001EB2F900000000
0000000A81B600000000
00000000000000000000
00003999871000000000
0000018EFF8000000000
00000001EFE100000000
00000005FFF800000000
0000000CBDFE10000000
0000005F26FF80000000
000000D900EFE1000000
000006FEDDEFF7000000
00000DCAA99FFE100000
00007E100009FF700000
003AFD200003FFE10000
18CDEFE70000BFF92000
0000001210009FFFFB30
000000000007FD952000
00000000002520000000
ENDCHAR
STARTCHAR Aring
ENCODING 197
SWIDTH 788 0
DWIDTH 13 0
BBX 19 18 -3 -4
BITMAP
00000000482000000000
00000002EAE000000000
00000003E6F100000000
00003999EF6000000000
0000018EFF8000000000
00000001EFE100000000
00000005FFF800000000
0000000CBDFE10000000
0000005F26FF70000000
000000D900EFE1000000
000006FEDDEFF7000000
00000DCAA99FFE100000
00007E100009FF700000
003AFD200003FFE10000
18CDEFE70000BFF92000
0000001210009FFFFB30
000000000007FD952000
00000000002520000000
ENDCHAR
STARTCHAR AE
ENCODING 198
SWIDTH 1019 0
DWIDTH 16 0
BBX 20 13 -4 -1
BITMAP
00000000012334556785
000004DFFFFFFFFFFFFA
00000019FFFFFB3201E9
000000009F9FF9003098
00000003FA4FF9037038
0000000CE14FF80A6003
0000006F503FFC9F6001
000001EB113FFFFF6024
000009FFFFFFF71D5064
00004F98878FF70550B4
0000CA00002FF70011F4
028EFA1039EFFFFFFFF4
59ABCDC6655555555441
ENDCHAR
STARTCHAR Ccedilla
ENCODING 199
SWIDTH 766 0
DWIDTH 12 0
BBX 13 18 0 -6
BITMAP
00000000000410
0004ADEDA32C00
01AFFFCCFFDB00
0AFFC2001BF800
4FFE100001D600
8FF80000005300
AFF50000000100
9FF60000000000
7FF90000003000
2FFE1000009300
07FFD30007F600
007FFFCCEFB900
00028EEDA50600
00001E70000000
00006DF8000000
0000117E000000
00008EEA000000
00001671000000
ENDCHAR
STARTCHAR Egrave
ENCODING 200
SWIDTH 781 0
DWIDTH 13 0
BBX 14 18 -2 -1
BITMAP
00000000200000
0000004DB00000
0000003FF20000
00000009F70000
00000002820000
00000001245677
16BCDEFFFFFEFC
0016DFF83201EC
00008FF500308B
00008FF405602A
00007FF40D5004
00007FFABF5001
00006FFFFF5015
00006FF33F4056
00005FF30740A6
00005FF20011E6
004AFFFFFFFFF6
03655555555442
ENDCHAR
STARTCHAR Eacute
ENCODING 201
SWIDTH 781 0
DWIDTH 13 0
BBX 14 17 -2 -1
BITMAP
00000000520000
00000000DF4000
00000003FD0000
00000005F50000
00000001445677
16BCDEFFFFFEFC
0016DFF83201EC
00008FF500308B
00008FF405602A
00007FF40D5004
00007FFABF5001
00006FFFFF5015
00006FF33F4056
00005FF30740A6
00005FF20011E6
004AFFFFFFFFF6
03655555555442
ENDCHAR
STARTCHAR Ecircumflex
ENCODING 202
SWIDTH 781 0
DWIDTH 13 0
BBX 14 18 -2 -1
BITMAP
00000005700000
0000003FF50000
000001DEEE2000
000008B21A9000
00000000000000
00000001245677
16BCDEFFFFFEFC
0016DFF83201EC
00008FF500308B
00008FF405602A
00007FF40D5004
00007FFABF5001
00006FFFFF5015
00006FF33F4056
00005FF30740A6
00005FF20011E6
004AFFFFFFFFF6
03655555555442
ENDCHAR
STARTCHAR Edieresis
ENCODING 203
SWIDTH 781 0
DWIDTH 13 0
BBX 14 16 -2 -1
BITMAP
00000010010000
000001EB2F9000
000000A81B6000
00000001245677
16BCDEFFFFFEFC
0016DFF83201EC
00008FF500308B
00008FF405602A
00007FF40D5004
00007FFABF5001
00006FFFFF5015
00006FF33F4056
00005FF30740A6
00005FF20011E6
004AFFFFFFFFF6
03655555555442
ENDCHAR
STARTCHAR Igrave
ENCODING 204
SWIDTH 445 0
DWIDTH 7 0
BBX 10 19 -1 -2
BITMAP
0000200000
002BF10000
000DF50000
0005FB0000
0000830000
0000000000
5CFFFFED71
003DFF7000
000AFF3000
0009FF2000
0009FF2000
0008FF2000
0007FF1000
0007FF1000
0006FF0000
0006FF0000
0005FF0000
027DFFB510
2666666651
ENDCHAR
STARTCHAR Iacute
ENCODING 205
SWIDTH 445 0
DWIDTH 7 0
BBX 10 18 -1 -2
BITMAP
0000160000
00006FB000
0000BF5000
0000DB0000
0000010000
5CFFFFED71
003DFF7000
000AFF3000
0009FF2000
0009FF2000
0008FF2000
0007FF1000
0007FF1000
0006FF0000
0006FF0000
0005FF0000
027DFFB510
2666666651
ENDCHAR
STARTCHAR Icircumflex
ENCODING 206
SWIDTH 445 0
DWIDTH 7 0
BBX 10 18 -1 -2
BITMAP
0000840000
0006FE2000
004FEFC000
00B913C500
0000000000
5CFFFFED71
003DFF7000
000AFF3000
0009FF2000
0009FF2000
0008FF2000
0007FF1000
0007FF1000
0006FF0000
0006FF0000
0005FF0000
027DFFB510
2666666651
ENDCHAR
STARTCHAR Idieresis
ENCODING 207
SWIDTH 445 0
DWIDTH 7 0
BBX 10 17 -1 -2
BITMAP
0001001000
008F3AE100
005C27B000
0000000000
5CFFFFED71
003DFF7000
000AFF3000
0009FF2000
0009FF2000
0008FF2000
0007FF1000
0007FF1000
0006FF0000
0006FF0000
0005FF0000
027DFFB510
2666666651
ENDCHAR
STARTCHAR Eth
ENCODING 208
SWIDTH 1000 0
DWIDTH 16 0
BBX 16 12 0 -1
BITMAP
39AAAAAAAA840000
005BFFFEDDFFD400
00008FFA002BFF40
00006FF90001EFD0
00105FF800009FF4
06FFFFFEDC107FF5
06EEEFFECC007FF4
00002FF60000AFF1
00001FF50002FFA0
00002FF7446DFD10
0018EFFFFFFD8100
0166654332100000
ENDCHAR
STARTCHAR Ntilde
ENCODING 209
SWIDTH 840 0
DWIDTH 13 0
BBX 17 16 -2 -1
BITMAP
0000007EC7A3000000
000000AEFFF3000000
000000402750000000
045554413888999950
017EFFFB028EFFA300
0000AFFF9000DB0000
00008FFFF600CB0000
00008F9FFF30CB0000
00008F1BFFD1CA0000
00008F11DFFCCA0000
00008F102EFFFA0000
00008F2003FFFA0000
00008F20005FF90000
0017DFC71007F90000
16CDDEEED940990000
000000000000040000
ENDCHAR
STARTCHAR Ograve
ENCODING 210
SWIDTH 808 0
DWIDTH 13 0
BBX 13 17 0 -1
BITMAP
00000011000000
000009E6000000
000009FB000000
000001EF100000
00000065000000
00000000000000
00059CDC940000
02CFFEBCFFB100
1DFF80007FFC00
6FFA00000BFF50
9FF5000007FF80
AFF5000006FF90
7FF8000009FF60
1EFE20003FFD10
04EFE769EFE300
0029EFFFD81000
00000231000000
ENDCHAR
STARTCHAR Oacute
ENCODING 211
SWIDTH 808 0
DWIDTH 13 0
BBX 13 16 0 -1
BITMAP
00000043000000
000000BF700000
000001FE100000
000003E7000000
00000010000000
00059CDC940000
02CFFEBCFFB100
1DFF80007FFC00
6FFA00000BFF50
9FF5000007FF80
AFF5000006FF90
7FF8000009FF60
1EFE20003FFD10
04EFE769EFE300
0029EFFFD81000
00000231000000
ENDCHAR
STARTCHAR Ocircumflex
ENCODING 212
SWIDTH 808 0
DWIDTH 13 0
BBX 13 16 0 -1
BITMAP
000001A1000000
00000BFB000000
00008FDF800000
0001D606D20000
00000000000000
00059CDC940000
02CFFEBCFFB100
1DFF80007FFC00
6FFA00000BFF50
9FF5000007FF80
AFF5000006FF90
7FF8000009FF60
1EFE20003FFD10
04EFE769EFE300
0029EFFFD81000
00000231000000
ENDCHAR
STARTCHAR Otilde
ENCODING 213
SWIDTH 808 0
DWIDTH 13 0
BBX 13 15 0 -1
BITMAP
00007EC7A30000
0000AEFFF30000
00004027500000
00000000000000
00059CDC940000
02CFFEBCFFB100
1DFF80007FFC00
6FFA00000BFF50
9FF5000007FF80
AFF5000006FF90
7FF8000009FF60
1EFE20003FFD10
04EFE769EFE300
0029EFFFD81000
00000231000000
ENDCHAR
STARTCHAR Odieresis
ENCODING 214
SWIDTH 808 0
DWIDTH 13 0
BBX 13 15 0 -1
BITMAP
00000101000000
0000CD1EB00000
00008A0A800000
00000000000000
00059CDC940000
02CFFEBCFFB100
1DFF80007FFC00
6FFA00000BFF50
9FF5000007FF80
AFF5000006FF90
7FF8000009FF60
1EFE20003FFD10
04EFE769EFE300
0029EFFFD81000
00000231000000
ENDCHAR
STARTCHAR multiply
ENCODING 215
SWIDTH 556 0
DWIDTH 9 0
BBX 9 9 0 1
BITMAP
0360004200
4EF504FD20
6FFF7EFF70
05FFFFF700
007FFF7000
02EFFFD200
2DFE7EFC10
7FE303EF60
0820003600
ENDCHAR
STARTCHAR Oslash
ENCODING 216
SWIDTH 808 0
DWIDTH 13 0
BBX 13 14 0 -2
BITMAP
00000000150000
000000008FB100
00059CDCFFB000
02CFFEBEFFC100
1DFF803FFFFC00
6FFA00BFDBFF50
9FF504FF36FF80
AFF50CF906FF90
7FF86FD109FF60
1EFEDF503FFD10
04EFFD69EFE300
003FFFFFD81000
008F6231000000
00490000000000
ENDCHAR
STARTCHAR Ugrave
ENCODING 217
SWIDTH 725 0
DWIDTH 12 0
BBX 15 17 -2 -1
BITMAP
0000000010000000
0000006E90000000
0000005FE0000000
0000000CF4000000
0000000471000000
1321000017777730
029FFED7118FE500
000AFF40000FB000
000BFF30000FA000
000BFF30000E9000
000CFF30000E9000
000CFF30000D8000
000BFF30000D7000
0009FF80003F4000
0002EFF735DD0000
00004EFFFFC20000
0000014653000000
ENDCHAR
STARTCHAR Uacute
ENCODING 218
SWIDTH 725 0
DWIDTH 12 0
BBX 15 17 -2 -1
BITMAP
0000000250000000
00000008FA000000
0000000DF3000000
0000001EA0000000
0000000010000000
1321000017777730
029FFED7118FE500
000AFF40000FB000
000BFF30000FA000
000BFF30000E9000
000CFF30000E9000
000CFF30000D8000
000BFF30000D7000
0009FF80003F4000
0002EFF735DD0000
00004EFFFFC20000
0000014653000000
ENDCHAR
STARTCHAR Ucircumflex
ENCODING 219
SWIDTH 725 0
DWIDTH 12 0
BBX 15 17 -2 -1
BITMAP
0000000570000000
0000003FF5000000
000001DEEE200000
000008B21A900000
0000000000000000
1321000017777730
029FFED7118FE500
000AFF40000FB000
000BFF30000FA000
000BFF30000E9000
000CFF30000E9000
000CFF30000D8000
000BFF30000D7000
0009FF80003F4000
0002EFF735DD0000
00004EFFFFC20000
0000014653000000
ENDCHAR
STARTCHAR Udieresis
ENCODING 220
SWIDTH 725 0
DWIDTH 12 0
BBX 15 16 -2 -1
BITMAP
0000001001000000
000001EB2F900000
000000A81B600000
0000000000000000
1321000017777730
029FFED7118FE500
000AFF40000FB000
000BFF30000FA000
000BFF30000E9000
000CFF30000E9000
000CFF30000D8000
000BFF30000D7000
0009FF80003F4000
0002EFF735DD0000
00004EFFFFC20000
0000014653000000
ENDCHAR
STARTCHAR Yacute
ENCODING 221
SWIDTH 848 0
DWIDTH 14 0
BBX 17 18 -2 -2
BITMAP
000000000340000000
0000000009F8000000
000000000EF2000000
000000002E90000000
000000000010000000
122345562000000000
38EFFFD40055443310
0004DFE3002AFFC500
00002EFD2006E30000
000004FFC16E300000
0000005FFCF4000000
00000007FF60000000
00000002FF30000000
00000002FF40000000
00000003FF60000000
00000004FF91000000
000004AFFFFEA50000
000002111111110000
ENDCHAR
STARTCHAR Thorn
ENCODING 222
SWIDTH 745 0
DWIDTH 12 0
BBX 14 12 -2 -1
BITMAP
14332221100000
029FFFFFA40000
0001DFD3000000
0000BFFFFEC830
0000BFD667AFF7
0000AFD00004FF
0000AFD00019FC
0000AFEABDFD80
0000AFFA863000
0000AFF3000000
004CFFFE920000
04777766662000
ENDCHAR
STARTCHAR germandbls
ENCODING 223
SWIDTH 986 0
DWIDTH 16 0
BBX 17 22 -1 -7
BITMAP
0000029CC820000000
00003EFBAEE4000000
0000CF7003EE100000
0003FD0000AF600000
0007FB00007F900000
0008FB00008F800000
0009FC0001DF400000
0CFFFE0009FC000000
0469FF102FF4000000
0004FF207FD0000000
0002FF408FE2000000
0000FF604FFE710000
0000DF8007FFFFA300
0000BFA0133BFFFF60
00009FB03C103AFFD0
00008FD03FD400BFC0
00006FE04DEFEEFD30
6C306FE05314664000
BF907FB01000000000
8F81CF500000000000
0AFFF8000000000000
003520000000000000
ENDCHAR
STARTCHAR agrave
ENCODING 224
SWIDTH 572 0
DWIDTH 9 0
BBX 10 16 0 -1
BITMAP
0000001000
00006E9000
00005FE000
00000CF400
0000047100
0000000000
006BDB7100
0AF96BFC00
3FF301FF30
1DD100EF50
049BBAFF50
5FF758FF40
AFD004FF20
4FFCADFF00
02788CFFA3
0000035433
ENDCHAR
STARTCHAR aacute
ENCODING 225
SWIDTH 572 0
DWIDTH 9 0
BBX 10 15 0 -1
BITMAP
0000052000
00000EF300
00004FB000
00007F3000
0000010000
006BDB7100
0AF96BFC00
3FF301FF30
1DD100EF50
049BBAFF50
5FF758FF40
AFD004FF20
4FFCADFF00
02788CFFA3
0000035433
ENDCHAR
STARTCHAR acircumflex
ENCODING 226
SWIDTH 572 0
DWIDTH 9 0
BBX 10 15 0 -1
BITMAP
0000390000
0001DF7000
000BFEF400
005C318C00
0000000000
006BDB7100
0AF96BFC00
3FF301FF30
1DD100EF50
049BBAFF50
5FF758FF40
AFD004FF20
4FFCADFF00
02788CFFA3
0000035433
ENDCHAR
STARTCHAR atilde
ENCODING 227
SWIDTH 572 0
DWIDTH 9 0
BBX 10 14 0 -1
BITMAP
001CEA6A00
001FEFFC00
0014047300
0000000000
006BDB7100
0AF96BFC00
3FF301FF30
1DD100EF50
049BBAFF50
5FF758FF40
AFD004FF20
4FFCADFF00
02788CFFA3
0000035433
ENDCHAR
STARTCHAR adieresis
ENCODING 228
SWIDTH 572 0
DWIDTH 9 0
BBX 10 14 0 -1
BITMAP
0001001000
006F58F300
003C35B100
0000000000
006BDB7100
0AF96BFC00
3FF301FF30
1DD100EF50
049BBAFF50
5FF758FF40
AFD004FF20
4FFCADFF00
02788CFFA3
0000035433
ENDCHAR
STARTCHAR aring
ENCODING 229
SWIDTH 572 0
DWIDTH 9 0
BBX 10 13 0 -1
BITMAP
0000AE6000
0005D5E000
0002ECB000
006BEF8100
0AF96BFB00
3FF301FF30
1DD100EF50
049BBAFF50
5FF758FF40
AFD004FF20
4FFCADFF00
02788CFFA3
0000035433
ENDCHAR
STARTCHAR ae
ENCODING 230
SWIDTH 1022 0
DWIDTH 16 0
BBX 17 10 0 -1
BITMAP
017CDB500014410000
2DE76EF62BFFFF7000
8FD006FEDFA34DF600
4E9004FFFE1005FE00
06ABABFFFFEEEEFF20
AFD55BFFFF54443310
FF8009FDEFA3127400
9FFAAEFB2BFFFE6000
03788EFE8124300000
000005443200000000
ENDCHAR
STARTCHAR ccedilla
ENCODING 231
SWIDTH 589 0
DWIDTH 9 0
BBX 10 14 0 -6
BITMAP
0028CDB500
03EFB8DF90
1EFA009FF1
5FF4005EB0
7FF3000000
6FF5000043
2EFD2004D1
06FFFCDF70
004AFEB500
0002F60000
0008DF6000
000119C000
000AEE9000
0001660000
ENDCHAR
STARTCHAR egrave
ENCODING 232
SWIDTH 593 0
DWIDTH 10 0
BBX 10 14 0 -1
BITMAP
0000011000
00008E6000
00008FC000
00001EF200
0000056000
0002552000
01AFFFFA00
0AFD55DF90
4FF3004FF1
7FFAAAAFF4
7FFBAAA993
2FF5000030
07FFA89C30
004CEEA300
ENDCHAR
STARTCHAR eacute
ENCODING 233
SWIDTH 593 0
DWIDTH 10 0
BBX 10 14 0 -1
BITMAP
0000061000
00002FE100
00007F9000
00009E1000
0000010000
0002552000
01AFFFFA00
0AFD55DF90
4FF3004FF1
7FFAAAAFF4
7FFBAAA993
2FF5000030
07FFA89C30
004CEEA300
ENDCHAR
STARTCHAR ecircumflex
ENCODING 234
SWIDTH 593 0
DWIDTH 10 0
BBX 10 14 0 -1
BITMAP
0000390000
0001DF7000
000BFEF400
005C318C00
0000000000
0002552000
01AFFFFA00
0AFD55DF90
4FF3004FF1
7FFAAAAFF4
7FFBAAA993
2FF5000030
07FFA89C30
004CEEA300
ENDCHAR
STARTCHAR edieresis
ENCODING 235
SWIDTH 593 0
DWIDTH 10 0
BBX 10 12 0 -1
BITMAP
0001001000
000DC1EA00
000A81B600
0002552000
01AFFFFA00
0AFD55DF90
4FF3004FF1
7FFAAAAFF4
7FFBAAA993
2FF5000030
07FFA89C30
004CEEA300
ENDCHAR
STARTCHAR igrave
ENCODING 236
SWIDTH 393 0
DWIDTH 6 0
BBX 8 14 -1 0
BITMAP
00002000
002BF100
000DF500
0005FB00
00008300
14444410
03AFFF30
0007FF20
0007FF00
0006FE00
0005FD00
0005FC00
0019FD20
04CEFFE6
ENDCHAR
STARTCHAR iacute
ENCODING 237
SWIDTH 393 0
DWIDTH 6 0
BBX 8 14 -1 0
BITMAP
00003400
00009F90
0000DF20
0002E900
00000100
14444410
03AFFF30
0007FF20
0007FF00
0006FE00
0005FD00
0005FC00
0019FD20
04CEFFE6
ENDCHAR
STARTCHAR icircumflex
ENCODING 238
SWIDTH 393 0
DWIDTH 6 0
BBX 8 14 -1 0
BITMAP
0000A200
0009FD10
006FDFA0
00D704D3
00000000
14444410
03AFFF30
0007FF20
0007FF00
0006FE00
0005FD00
0005FC00
0019FD20
04CEFFE6
ENDCHAR
STARTCHAR idieresis
ENCODING 239
SWIDTH 393 0
DWIDTH 6 0
BBX 8 13 -1 0
BITMAP
00010010
005F58F3
003C35C2
00000000
14444410
03AFFF30
0007FF20
0007FF00
0006FE00
0005FD00
0005FC00
0019FD20
04CEFFE6
ENDCHAR
STARTCHAR eth
ENCODING 240
SWIDTH 672 0
DWIDTH 11 0
BBX 12 15 -1 -2
BITMAP
001660000550
00005C52BFB0
000004FFF800
00003CFFD100
0004FFA9FB00
00009601EF60
000012329FE0
004BFFFFFFF5
06FFA314CFF9
0EFB00002FFB
2FF700000DFB
1FF900000EF7
08FF40019FE1
007EFDCEFC20
000057863000
ENDCHAR
STARTCHAR ntilde
ENCODING 241
SWIDTH 643 0
DWIDTH 10 0
BBX 14 11 -2 1
BITMAP
000006EC794000
000009EFFF4000
00000402760000
00136862652000
18EFFFEFFFE400
0004FFD55DFB00
0000EF6006FD00
0000DF4004FD00
0000BF2004FB00
0039EFC304F900
00222226AEFE81
ENDCHAR
STARTCHAR ograve
ENCODING 242
SWIDTH 705 0
DWIDTH 11 0
BBX 12 14 0 -1
BITMAP
000000200000
00004DB00000
00003FF20000
000009F70000
000002820000
001589861000
07EFEABFF900
5FF80003FF90
BFD000009FF0
CFC000008FF1
9FE20000CFD0
1CFD534BFE30
017CFFFD8200
000001000000
ENDCHAR
STARTCHAR oacute
ENCODING 243
SWIDTH 705 0
DWIDTH 11 0
BBX 12 14 0 -1
BITMAP
000003400000
00000AF70000
00001EE20000
00003E800000
000001100000
001589861000
07EFEABFF900
5FF80003FF90
BFD000009FF0
CFC000008FF1
9FE20000CFD0
1CFD534BFE30
017CFFFD8200
000001000000
ENDCHAR
STARTCHAR ocircumflex
ENCODING 244
SWIDTH 705 0
DWIDTH 11 0
BBX 12 14 0 -1
BITMAP
000007500000
00005FE30000
0003EEFD1000
000A912B7000
000000000000
001589861000
07EFEABFF900
5FF80003FF90
BFD000009FF0
CFC000008FF1
9FE20000CFD0
1CFD534BFE30
017CFFFD8200
000001000000
ENDCHAR
STARTCHAR otilde
ENCODING 245
SWIDTH 705 0
DWIDTH 11 0
BBX 12 13 0 -1
BITMAP
0004DD886000
0007EFFF6000
000311661000
000000000000
001589861000
07EFEABFF900
5FF80003FF90
BFD000009FF0
CFC000008FF1
9FE20000CFD0
1CFD534BFE30
017CFFFD8200
000001000000
ENDCHAR
STARTCHAR odieresis
ENCODING 246
SWIDTH 705 0
DWIDTH 11 0
BBX 12 13 0 -1
BITMAP
000010010000
0004F67F4000
0003C44C2000
000000000000
001589861000
07EFEABFF900
5FF80003FF90
BFD000009FF0
CFC000008FF1
9FE20000CFD0
1CFD534BFE30
017CFFFD8200
000001000000
ENDCHAR
STARTCHAR divide
ENCODING 247
SWIDTH 504 0
DWIDTH 8 0
BBX 8 11 0 -1
BITMAP
00001000
002DF800
005FFD00
00068300
9BA98775
CFFFFFFD
89988775
00067100
006FFA00
004EF700
00011000
ENDCHAR
STARTCHAR oslash
ENCODING 248
SWIDTH 705 0
DWIDTH 11 0
BBX 12 12 0 -2
BITMAP
000000017000
00000009FA00
0015899FF500
07EFEAFFF900
5FF805FEEF90
BFD01DF79FF0
CFC08FC08FF1
8FF4EF30CFD0
1CFFFA4BFE30
019FFFFD8200
00CF62000000
008B00000000
ENDCHAR
STARTCHAR ugrave
ENCODING 249
SWIDTH 614 0
DWIDTH 10 0
BBX 13 15 -2 -1
BITMAP
00000011000000
000007E7000000
000007FC000000
000000DF200000
00000056100000
00000000000000
18DDD828999600
004FF7018FF700
000FF5000EF500
000FF4000FF200
000FF4001FF000
000DF5002FD000
0009FD55DFA000
0001BFFFBFEA40
00000131297410
ENDCHAR
STARTCHAR uacute
ENCODING 250
SWIDTH 614 0
DWIDTH 10 0
BBX 13 14 -2 -1
BITMAP
00000006100000
0000004FD00000
0000009F700000
000000BD000000
00000001000000
18DDD828999600
004FF7018FF700
000FF5000EF500
000FF4000FF200
000FF4001FF000
000DF5002FD000
0009FD55DFA000
0001BFFFBFEA40
00000131297410
ENDCHAR
STARTCHAR ucircumflex
ENCODING 251
SWIDTH 614 0
DWIDTH 10 0
BBX 13 14 -2 -1
BITMAP
00000057000000
000003EF500000
00001DFEE20000
00007B21AA0000
00000000000000
18DDD828999600
004FF7018FF700
000FF5000EF500
000FF4000FF200
000FF4001FF000
000DF5002FD000
0009FD55DFA000
0001BFFFBFEA40
00000131297410
ENDCHAR
STARTCHAR udieresis
ENCODING 252
SWIDTH 614 0
DWIDTH 10 0
BBX 13 13 -2 -1
BITMAP
00000100100000
00006F58F30000
00003C35B10000
00000000000000
18DDD828999600
004FF7018FF700
000FF5000EF500
000FF4000FF200
000FF4001FF000
000DF5002FD000
0009FD55DFA000
0001BFFFBFEA40
00000131297410
ENDCHAR
STARTCHAR yacute
ENCODING 253
SWIDTH 655 0
DWIDTH 10 0
BBX 11 22 -1 -8
BITMAP
000000610000
000004FD0000
000009F70000
00000BD00000
000000100000
540000000000
1CD832ABA860
01DFF407FFE0
00EFE000CFE0
04FFA000CFD0
06FF7000CFD0
04FFB100CFC0
00BFFEDEFFB0
00059A96EFB0
00000000EFA0
00000000EF90
00320000FF80
03FE1003FF60
05FD0008FF10
01DE637FF700
002AFFFD6000
000012200000
ENDCHAR
STARTCHAR thorn
ENCODING 254
SWIDTH 734 0
DWIDTH 12 0
BBX 13 18 -1 -7
BITMAP
6DFFFE00000000
006EFE00000000
000BFE00000000
000BFE00000000
000AFE00000000
000AFE02210000
0009FFFFFFB400
0009FF4239FF40
0008FE0000AFB0
0008FE00008FD0
0008FE0000CFB0
0007FF855BFE30
0007FFDFFFB300
0006FF01200000
0006FF00000000
0005FF00000000
006DFFD6100000
28887765400000
ENDCHAR
STARTCHAR ydieresis
ENCODING 255
SWIDTH 655 0
DWIDTH 10 0
BBX 11 21 -1 -8
BITMAP
000010010000
0006F58F3000
0003C35B1000
000000000000
540000000000
1CD832ABA860
01DFF407FFE0
00EFE000CFE0
04FFA000CFD0
06FF7000CFD0
04FFB100CFC0
00BFFEDEFFB0
00059A96EFB0
00000000EFA0
00000000EF90
00320000FF80
03FE1003FF60
05FD0008FF10
01DE637FF700
002AFFFD6000
000012200000
ENDCHAR
STARTCHAR dotlessi
ENCODING 305
SWIDTH 393 0
DWIDTH 6 0
BBX 8 9 -1 0
BITMAP
14444410
03AFFF30
0007FF20
0007FF00
0006FE00
0005FD00
0005FC00
0019FD20
04CEFFE6
ENDCHAR
STARTCHAR Lslash
ENCODING 321
SWIDTH 713 0
DWIDTH 11 0
BBX 14 13 -2 0
BITMAP
15888888983000
0039EFFE820000
00008FF7000000
00007FF7000000
00007FFCE60000
00006FFFFC0000
0029EFFD710013
00AFFFF6000064
00496FF60000C4
00003FF50003F4
00002FF50009F4
0003BFFEEDDEF4
029CBBA9987761
ENDCHAR
STARTCHAR lslash
ENCODING 322
SWIDTH 365 0
DWIDTH 6 0
BBX 9 16 -2 -2
BITMAP
28AABB6000
004BFF8000
0005FF7000
0004FF7000
0003FF6110
0003FFDF80
0017FFFD50
07FFFF7000
06FDFF4000
0060FF3000
0000EF3000
0000EF2000
0000DF2000
0002DF5000
006EFFFA10
0132210000
ENDCHAR
STARTCHAR OE
ENCODING 338
SWIDTH 1195 0
DWIDTH 19 0
BBX 19 13 0 -1
BITMAP
00000000000123456740
0000017BCDEFFFFFFF70
000000026DFF93203F60
006BEFEA39FF70020C60
1CFE759FFCFF60640550
7FF30008FFFF60D40030
CFB00003FFFFBAF30000
CFA00002FFFFFFF30410
9FD00006FFFF53F30910
2EF9104EFCFF40730E10
02AFFFFD66FF40014F10
00024535AFFFFFFFFF10
00000045555555554400
ENDCHAR
STARTCHAR oe
ENCODING 339
SWIDTH 1087 0
DWIDTH 17 0
BBX 18 9 0 -1
BITMAP
000134200000000000
04CFFFFD429DFFB300
4FF8105FFEFC8BFF40
BFA00009FFD100AFD0
CF700006FFC777AFF2
AFA00009FFEDCCCCB3
2DF8227FFFC0000020
029EFFEA5EFD878B30
00001100029DED9200
ENDCHAR
STARTCHAR Scaron
ENCODING 352
SWIDTH 661 0
DWIDTH 11 0
BBX 11 18 0 -2
BITMAP
002A203A1000
000CEAF90000
0002EFC10000
00004D200000
000000000000
001566400630
09FFDEFE8F10
8FE3003AFE00
CFD200007D00
BFFFB7300500
2DFFFFFD6000
017CFFFFFA00
040015BFFF40
0C20000AFF60
0FD5002CFE10
1D9FFEFFC200
350267520000
200000000000
ENDCHAR
STARTCHAR scaron
ENCODING 353
SWIDTH 533 0
DWIDTH 9 0
BBX 9 16 0 -1
BITMAP
01A302A200
009FAEC000
000CFE2000
0002D40000
0000000000
0025410300
09FFFE8A00
7FA017FE00
AFD3004D00
5FFFC71500
06EFFFE600
4416CFFF40
6E3003EF70
7FFA67FF30
858CEDA400
2000000000
ENDCHAR
STARTCHAR Ydieresis
ENCODING 376
SWIDTH 848 0
DWIDTH 14 0
BBX 17 16 -2 -2
BITMAP
000000010010000000
0000001EA3F8000000
0000000B71B5000000
122345562000000000
38EFFFD40055443310
0004DFE3002AFFC500
00002EFD2006E30000
000004FFC16E300000
0000005FFCF4000000
00000007FF60000000
00000002FF30000000
00000002FF40000000
00000003FF60000000
00000004FF91000000
000004AFFFFEA50000
000002111111110000
ENDCHAR
STARTCHAR Zcaron
ENCODING 381
SWIDTH 685 0
DWIDTH 11 0
BBX 12 15 0 0
BITMAP
000860185000
0005FBDE2000
00008FF50000
00000B800000
000000000000
58899AAABBB2
7FEDDCDFFF70
3F4000BFFB00
0E1009FFD100
08007FFE3010
0205FFF50080
003EFF9005A0
02EFFC000D90
1CFFFCBABF90
6AAAABBBBB60
ENDCHAR
STARTCHAR zcaron
ENCODING 382
SWIDTH 549 0
DWIDTH 9 0
BBX 10 15 0 -1
BITMAP
0095019400
007FBED100
000AFF3000
0001C60000
0000000000
2333444552
AFFFFFFFC0
7F422DFE20
4D00AFF500
1807FF9010
024FFC0350
02EFE20A60
1CFFB55F70
6CDEFFFF80
0000012320
ENDCHAR
STARTCHAR circumflex
ENCODING 710
SWIDTH 714 0
DWIDTH 11 0
BBX 6 4 3 11
BITMAP
002A00
01DF90
0AFDF6
3D407D
ENDCHAR
STARTCHAR caron
ENCODING 711
SWIDTH 714 0
DWIDTH 11 0
BBX 6 4 3 11
BITMAP
39204A
1CEAF9
02EFB0
004D10
ENDCHAR
STARTCHAR breve
ENCODING 728
SWIDTH 715 0
DWIDTH 11 0
BBX 6 4 3 11
BITMAP
1B204A
0CECF7
02DFA0
000200
ENDCHAR
STARTCHAR dotaccent
ENCODING 729
SWIDTH 708 0
DWIDTH 11 0
BBX 3 3 4 13
BITMAP
0100
3F80
1C50
ENDCHAR
STARTCHAR ring
ENCODING 730
SWIDTH 704 0
DWIDTH 11 0
BBX 4 4 4 11
BITMAP
09C4
5C7D
4EBB
0471
ENDCHAR
STARTCHAR ogonek
ENCODING 731
SWIDTH 988 0
DWIDTH 16 0
BBX 6 5 5 -2
BITMAP
010000
8C0000
DD0000
CFC9B8
3CEC81
ENDCHAR
STARTCHAR tilde
ENCODING 732
SWIDTH 707 0
DWIDTH 11 0
BBX 6 3 3 11
BITMAP
1CEA79
2FEFFB
130572
ENDCHAR
STARTCHAR hungarumlaut
ENCODING 733
SWIDTH 671 0
DWIDTH 11 0
BBX 6 5 3 11
BITMAP
061340
2FEAF8
7F9EF2
9E3E90
010010
ENDCHAR
STARTCHAR endash
ENCODING 8211
SWIDTH 576 0
DWIDTH 9 0
BBX 9 4 0 4
BITMAP
0011122200
1FFFFFFF30
1FFFFFFF30
0112223310
ENDCHAR
STARTCHAR emdash
ENCODING 8212
SWIDTH 993 0
DWIDTH 16 0
BBX 15 3 0 4
BITMAP
1DDDDDEEEEEFFFD0
1FFFFFFFFFFFFFE0
0334444455555650
ENDCHAR
STARTCHAR quoteleft
ENCODING 8216
SWIDTH 261 0
DWIDTH 4 0
BBX 4 6 0 6
BITMAP
0061
06FD
1EF9
8FF4
4BE0
0010
ENDCHAR
STARTCHAR quoteright
ENCODING 8217
SWIDTH 301 0
DWIDTH 5 0
BBX 5 6 0 6
BITMAP
025000
08FD20
0DFC00
3FF400
4DB000
001000
ENDCHAR
STARTCHAR quotesinglbase
ENCODING 8218
SWIDTH 332 0
DWIDTH 5 0
BBX 5 6 0 -2
BITMAP
025000
08FD20
0DFC00
3FF400
4DB000
001000
ENDCHAR
STARTCHAR quotedblleft
ENCODING 8220
SWIDTH 477 0
DWIDTH 8 0
BBX 8 6 0 6
BITMAP
00610430
06FD1EF5
1EF98FF1
8FF5EFB0
4BE18E60
00100110
ENDCHAR
STARTCHAR quotedblright
ENCODING 8221
SWIDTH 477 0
DWIDTH 8 0
BBX 8 6 0 6
BITMAP
04201500
0DFA6FD3
3FF7BFE1
8FE2FF60
7E63CD00
01000100
ENDCHAR
STARTCHAR quotedblbase
ENCODING 8222
SWIDTH 477 0
DWIDTH 8 0
BBX 8 6 0 -2
BITMAP
04201500
0DFA6FD3
3FF7BFE1
8FE2FF60
7E63CD00
01000100
ENDCHAR
STARTCHAR dagger
ENCODING 8224
SWIDTH 487 0
DWIDTH 8 0
BBX 8 19 0 -5
BITMAP
00156200
004FF500
003FF500
003FF500
589FF841
9FFFFFF6
9EEFFDB4
002FF300
002FF300
001FF300
001FF200
001FF200
000FF200
000FF100
000FF100
000FF100
000EF000
000EF000
000AA000
ENDCHAR
STARTCHAR daggerdbl
ENCODING 8225
SWIDTH 497 0
DWIDTH 8 0
BBX 8 19 0 -5
BITMAP
00156200
004FF500
003FF500
003FF500
589FF841
9FFFFFF6
9EEFFDB4
002FF400
367FFAA4
9FFFFFF6
5ABFFDD6
001FF200
001FF200
000FF200
000FF100
000FF100
000EF100
000EF000
000AA000
ENDCHAR
STARTCHAR bullet
ENCODING 8226
SWIDTH 275 0
DWIDTH 4 0
BBX 5 6 0 3
BITMAP
023000
6FFC00
EFFF50
DFFF40
4EF900
001000
ENDCHAR
STARTCHAR ellipsis
ENCODING 8230
SWIDTH 787 0
DWIDTH 13 0
BBX 13 4 0 -2
BITMAP
04200240004200
9FF43FFB0AFF30
AFF53FFC0BFF40
15400351015300
ENDCHAR
STARTCHAR perthousand
ENCODING 8240
SWIDTH 888 0
DWIDTH 14 0
BBX 15 14 0 -1
BITMAP
0000001510000000
18A7007FD0000000
BE9F80DF70000000
EB0EB4FE10000000
AFBF7AF900000000
17951FF200000000
00007FB000000000
0000DF4000000000
0004FD0120002000
000AF67FFD7EFE40
001FE1FB3FFD2EB0
007F80FB3FFD2EB0
00DF206FFC6EFD30
0067000110002000
ENDCHAR
STARTCHAR guilsinglleft
ENCODING 8249
SWIDTH 234 0
DWIDTH 4 0
BBX 4 9 0 -1
BITMAP
0054
02E6
0BE1
8F90
BF60
3EC0
06F4
00A7
0011
ENDCHAR
STARTCHAR guilsinglright
ENCODING 8250
SWIDTH 223 0
DWIDTH 4 0
BBX 4 9 0 -1
BITMAP
7200
AB00
4F80
0CF4
0AF7
1FC1
8E30
B600
2000
ENDCHAR
STARTCHAR fraction
ENCODING 8260
SWIDTH 600 0
DWIDTH 10 0
BBX 11 16 -1 -2
BITMAP
000000002100
00000000CD40
00000006FFD0
0000001EFF40
0000008FFA00
000002FFE100
00000BFF6000
00004FFC0000
0000DFF30000
0007FF800000
001EFD100000
009FF5000000
03FFA0000000
0BFE20000000
4FF700000000
05B000000000
ENDCHAR
STARTCHAR Euro
ENCODING 8364
SWIDTH 590 0
DWIDTH 9 0
BBX 11 11 -1 0
BITMAP
000003662000
0002CFDEF600
001DF701EF30
007FC000EF50
7FFFECC33500
48EFB7620000
5BEFECDA0030
259FFA880660
001DFE76AD10
0002BFFFC200
000002430000
ENDCHAR
STARTCHAR trademark
ENCODING 8482
SWIDTH 624 0
DWIDTH 10 0
BBX 11 8 0 4
BITMAP
062000000000
2D1000000000
BFB400000000
4D06A9969200
5C00D6AA8800
6B12B2765800
3EC365975610
010000000000
ENDCHAR
STARTCHAR minus
ENCODING 8722
SWIDTH 549 0
DWIDTH 9 0
BBX 9 3 0 4
BITMAP
BEDCBBA950
CFFFFFFF90
BCCBBAA950
ENDCHAR
STARTCHAR fi
ENCODING 64257
SWIDTH 757 0
DWIDTH 12 0
BBX 14 23 -1 -7
BITMAP
00000035410000
00002DFFFE6000
0001DF506FF500
0006FC000BFC00
0009F9002FFF00
000BF9001EFC00
000BFA00025100
000AFC11112200
0CFFFFFFFFFF00
046AFF766DFE00
0005FF300AFD00
0003FF4009FC00
0001FF6008FA00
0000EF8007F900
0000CFA01AFB10
0000BFB5DEFFD4
00008FD0000000
00006FE0000000
5B305FE0000000
BF907FB0000000
8F71CF50000000
0BFFF800000000
00353000000000
ENDCHAR
STARTCHAR fl
ENCODING 64258
SWIDTH 776 0
DWIDTH 12 0
BBX 14 23 -1 -7
BITMAP
00000046510000
00002DFEFF6000
0000DF405FF400
0005FB000CFB00
000AF9000AFF00
000BF90008FF10
000BFA0008FF20
000AFC0007FF20
0CFFFFFF86FF10
046AFF7636FF10
0005FF3005FF00
0003FF4004FF00
0001FF6004FE00
0000EF8003FD00
0000CFA003FD00
0000BFB005FE20
00008FD19FFFF7
00006FE2321100
5B305FE0000000
BF907FB0000000
8F71CF50000000
0BFFF800000000
00353000000000
ENDCHAR
STARTCHAR .notdef
ENCODING -1
SWIDTH 320 0
DWIDTH 5 0
BBX 1 1 0 0
BITMAP
00
ENDCHAR
ENDFONT
